<?xml version="1.0" encoding="utf-8"?><svg id="I-LINK" xmlns="http://www.w3.org/2000/svg" xmlns:xlink="http://www.w3.org/1999/xlink" viewBox="0 0 76.33 65.27"><defs><style>.cls-1{fill:#32b2ea;}.cls-2{fill:#1e86c6;}.cls-3{fill:#fff;}.cls-4{fill:url(#Namnlös_övertoning_29);}</style><linearGradient id="Namnlös_övertoning_29" x1="0.02" y1="5.52" x2="76.33" y2="5.52" gradientUnits="userSpaceOnUse"><stop offset="0" stop-color="#333"/><stop offset="1" stop-color="#333"/><stop offset="1" stop-color="#f7941e"/></linearGradient></defs><title>i-link</title><polygon class="cls-1" points="11.03 14.06 0 25.09 0 44.19 76.33 44.19 76.33 14.06 11.03 14.06"/><rect class="cls-2" y="47.2" width="76.33" height="18.08"/><polygon class="cls-3" points="10.33 33.77 8.23 33.77 9.37 24.48 11.46 24.48 10.33 33.77"/><polygon class="cls-3" points="12.33 29.13 15.53 29.13 15.33 30.67 12.14 30.67 12.33 29.13"/><polygon class="cls-3" points="18.49 32.11 21.62 32.11 21.41 33.77 16.21 33.77 17.36 24.48 19.43 24.48 18.49 32.11"/><polygon class="cls-3" points="24.57 33.77 22.48 33.77 23.62 24.48 25.71 24.48 24.57 33.77"/><path class="cls-3" d="M333.46,733.72h.22a.43.43,0,0,1,.17,0,.26.26,0,0,1,.13.1,1.11,1.11,0,0,1,.12.16l3.26,5.74c0-.14,0-.29,0-.42s0-.27,0-.38l.63-5.25h1.83L338.75,743h-1.08a1.15,1.15,0,0,1-.4-.07.57.57,0,0,1-.27-.28l-3.25-5.73,0,.34,0,.32-.64,5.42h-1.83l1.14-9.29Z" transform="translate(-305.14 -709.24)"/><path class="cls-3" d="M342.84,737.52h.3a1.19,1.19,0,0,0,.4-.07.65.65,0,0,0,.28-.24l2.21-3.08a.83.83,0,0,1,.4-.33,1.53,1.53,0,0,1,.54-.08h1.8l-2.92,3.79a2,2,0,0,1-.31.33l-.33.21a1.23,1.23,0,0,1,.38.24,1.14,1.14,0,0,1,.28.41l2,4.31H346a1.42,1.42,0,0,1-.31,0,.65.65,0,0,1-.21-.07.41.41,0,0,1-.14-.12,1.4,1.4,0,0,1-.1-.16l-1.44-3.27a.47.47,0,0,0-.24-.26,1,1,0,0,0-.42-.07h-.48l-.49,4h-2.07l1.14-9.29h2.08Z" transform="translate(-305.14 -709.24)"/><path class="cls-3" d="M352.2,733.88l-.08.64h-1.05l-.38,3.13h-.77l.38-3.13h-1.05l.09-.64Zm2.17,2.09c0,.11.06.22.08.31l.07-.15a.86.86,0,0,1,.1-.16l1.2-2a.28.28,0,0,1,.11-.11l.16,0h.65l-.45,3.77h-.68l.29-2.37.1-.45L354.69,737a.34.34,0,0,1-.29.17h-.11a.24.24,0,0,1-.24-.17l-.8-2.16v.46l-.29,2.37h-.67l.45-3.77h.66l.15,0s.07.05.09.11Z" transform="translate(-305.14 -709.24)"/><rect class="cls-3" x="8.41" y="51.29" width="0.8" height="3.43"/><path class="cls-3" d="M317.55,762.24a1.64,1.64,0,0,0-.07-.46.94.94,0,0,0-.19-.34.71.71,0,0,0-.3-.21,1.09,1.09,0,0,0-.82,0,.71.71,0,0,0-.3.21.94.94,0,0,0-.19.34,1.64,1.64,0,0,0-.07.46,1.59,1.59,0,0,0,.07.46,1,1,0,0,0,.19.35.81.81,0,0,0,.3.21,1.09,1.09,0,0,0,.82,0,.81.81,0,0,0,.3-.21,1,1,0,0,0,.19-.35A1.59,1.59,0,0,0,317.55,762.24Zm.81,0a1.73,1.73,0,0,1-.13.69,1.8,1.8,0,0,1-.36.56,1.66,1.66,0,0,1-.56.37,1.9,1.9,0,0,1-.73.13,1.85,1.85,0,0,1-.72-.13,1.61,1.61,0,0,1-.57-.37,1.63,1.63,0,0,1-.36-.56,1.73,1.73,0,0,1-.13-.69,1.8,1.8,0,0,1,.13-.69,1.62,1.62,0,0,1,.93-.92,1.85,1.85,0,0,1,.72-.14,1.9,1.9,0,0,1,.73.14,1.66,1.66,0,0,1,.56.37,1.87,1.87,0,0,1,.36.55A1.8,1.8,0,0,1,318.36,762.24Z" transform="translate(-305.14 -709.24)"/><rect class="cls-3" x="13.55" y="53" width="1.27" height="0.59"/><polygon class="cls-3" points="16.14 54.08 17.41 54.08 17.41 54.72 15.34 54.72 15.34 51.29 16.14 51.29 16.14 54.08"/><rect class="cls-3" x="17.85" y="51.29" width="0.8" height="3.43"/><path class="cls-3" d="M324.84,760.53h.09l.06,0a.1.1,0,0,1,.05,0l.06.06,1.63,2.06c0-.06,0-.13,0-.19v-2h.7V764H327a.38.38,0,0,1-.16,0,.3.3,0,0,1-.12-.11l-1.61-2V764h-.7v-3.43Z" transform="translate(-305.14 -709.24)"/><path class="cls-3" d="M328.77,761.92h.12a.29.29,0,0,0,.26-.11l.77-1.12a.43.43,0,0,1,.14-.13.66.66,0,0,1,.21,0H331l-1,1.38a.5.5,0,0,1-.11.13l-.12.08.16.1a.39.39,0,0,1,.13.15l1,1.59h-.83l-.08,0-.06,0-.05-.07-.78-1.19a.17.17,0,0,0-.1-.09.45.45,0,0,0-.18,0h-.19V764H328v-3.43h.79Z" transform="translate(-305.14 -709.24)"/><path class="cls-3" d="M315.23,768.27l.09.18c0,.07.06.13.08.2s.05-.14.08-.2l.1-.19.88-1.73a.43.43,0,0,1,0-.07l.06,0h.76v3.42h-.69v-2c0-.09,0-.2,0-.31l-.91,1.76a.36.36,0,0,1-.11.13.31.31,0,0,1-.17,0h-.1a.33.33,0,0,1-.17,0,.28.28,0,0,1-.11-.13l-.91-1.76c0,.05,0,.11,0,.17a.71.71,0,0,1,0,.14v2h-.7v-3.42h.76l.06,0a.43.43,0,0,1,0,.07Z" transform="translate(-305.14 -709.24)"/><path class="cls-3" d="M318.88,768.52h.93l-.31-.94c0-.06-.05-.13-.08-.2s-.05-.17-.08-.27c0,.1,0,.19-.07.27l-.08.21Zm2.19,1.31h-.61a.23.23,0,0,1-.17-.05.22.22,0,0,1-.09-.12l-.2-.6h-1.31l-.2.6a.24.24,0,0,1-.09.12.31.31,0,0,1-.17.05h-.62l1.33-3.42h.81Z" transform="translate(-305.14 -709.24)"/><path class="cls-3" d="M323.26,767.1a.35.35,0,0,1-.07.09.17.17,0,0,1-.1,0,.28.28,0,0,1-.12,0l-.14-.08-.18-.07a.59.59,0,0,0-.23,0,.5.5,0,0,0-.33.1.33.33,0,0,0-.11.26.27.27,0,0,0,.06.17l.17.12.25.09.28.09a1.39,1.39,0,0,1,.28.12.85.85,0,0,1,.25.17.82.82,0,0,1,.23.62,1.12,1.12,0,0,1-.08.45.88.88,0,0,1-.24.36,1.12,1.12,0,0,1-.38.24,1.46,1.46,0,0,1-.52.09l-.33,0-.32-.1a1.55,1.55,0,0,1-.29-.14,1.08,1.08,0,0,1-.23-.18l.23-.37.07-.07a.19.19,0,0,1,.1,0,.24.24,0,0,1,.14,0l.17.09.2.11a1.18,1.18,0,0,0,.28,0,.55.55,0,0,0,.34-.09.39.39,0,0,0,.12-.31.29.29,0,0,0-.07-.19.45.45,0,0,0-.17-.13l-.24-.09-.28-.08-.28-.11a.72.72,0,0,1-.25-.18.73.73,0,0,1-.17-.27,1.15,1.15,0,0,1-.07-.4,1,1,0,0,1,.08-.38,1,1,0,0,1,.23-.33,1.14,1.14,0,0,1,.37-.22,1.28,1.28,0,0,1,.5-.09,1.39,1.39,0,0,1,.3,0,.88.88,0,0,1,.29.07l.25.11.21.15Z" transform="translate(-305.14 -709.24)"/><polygon class="cls-3" points="21.25 57.17 21.25 57.8 20.29 57.8 20.29 60.59 19.49 60.59 19.49 57.8 18.53 57.8 18.53 57.17 21.25 57.17"/><polygon class="cls-3" points="23.78 57.17 23.78 57.78 22.38 57.78 22.38 58.58 23.45 58.58 23.45 59.16 22.38 59.16 22.38 59.98 23.78 59.98 23.78 60.59 21.58 60.59 21.58 57.17 23.78 57.17"/><path class="cls-3" d="M330.16,768h.32a1.11,1.11,0,0,0,.28,0,.52.52,0,0,0,.19-.12.37.37,0,0,0,.1-.17.71.71,0,0,0,0-.21.43.43,0,0,0-.15-.35.67.67,0,0,0-.46-.13h-.32Zm0,.54v1.27h-.79v-3.42h1.11a2.41,2.41,0,0,1,.64.07,1.05,1.05,0,0,1,.42.22.7.7,0,0,1,.25.32,1.05,1.05,0,0,1,.07.4,1.12,1.12,0,0,1,0,.32,1.08,1.08,0,0,1-.35.49,1.24,1.24,0,0,1-.3.17.4.4,0,0,1,.15.1.44.44,0,0,1,.13.14l.72,1.19h-.72a.29.29,0,0,1-.28-.15l-.57-1a.3.3,0,0,0-.09-.1.26.26,0,0,0-.14,0Z" transform="translate(-305.14 -709.24)"/><polygon class="cls-4" points="65.29 0 0.02 0 11.06 11.05 76.33 11.05 76.33 11.05 65.29 0"/></svg>