<?xml version="1.0" encoding="utf-8"?><svg id="M-BUS" xmlns="http://www.w3.org/2000/svg" xmlns:xlink="http://www.w3.org/1999/xlink" viewBox="0 0 76.34 65.27"><defs><style>.cls-1{fill:#32b2ea;}.cls-2{fill:#1e86c6;}.cls-3{fill:#fff;}.cls-4{fill:url(#Namnlös_övertoning_31);}</style><linearGradient id="Namnlös_övertoning_31" x1="0.02" y1="5.52" x2="76.34" y2="5.52" gradientUnits="userSpaceOnUse"><stop offset="0" stop-color="#e38d28"/><stop offset="1" stop-color="#e38d28"/><stop offset="1" stop-color="#f7941e"/></linearGradient></defs><title>m-bus</title><polygon class="cls-1" points="11.03 14.06 0 25.09 0 44.19 76.34 44.19 76.34 14.06 11.03 14.06"/><rect class="cls-2" y="47.2" width="76.34" height="18.08"/><path class="cls-3" d="M409.54,651.15c.09.27.16.55.23.83l.21-.42.23-.41,2.85-4.89a.56.56,0,0,1,.32-.27,1.57,1.57,0,0,1,.37,0h1.63l-1.15,9.29h-1.82l.65-5.4a3,3,0,0,1,.06-.38l.09-.43-2.79,4.79a.87.87,0,0,1-.33.33,1,1,0,0,1-.45.1h-.28a.86.86,0,0,1-.43-.11.58.58,0,0,1-.25-.32L407.05,649c0,.15,0,.29,0,.43l0,.36-.64,5.44h-1.83l1.15-9.29h1.81a.48.48,0,0,1,.18,0,.22.22,0,0,1,.14.09.5.5,0,0,1,.1.18Z" transform="translate(-396.47 -621.46)"/><polygon class="cls-3" points="19.6 29.13 22.8 29.13 22.6 30.67 19.41 30.67 19.6 29.13"/><path class="cls-3" d="M422.68,649.89h1a2.38,2.38,0,0,0,.63-.07,1.19,1.19,0,0,0,.48-.23,1.07,1.07,0,0,0,.31-.46,1.75,1.75,0,0,0,.11-.69.87.87,0,0,0-.27-.73,1.36,1.36,0,0,0-.84-.22H423Zm-.17,1.38-.29,2.4h1.36a1.58,1.58,0,0,0,.65-.11,1.1,1.1,0,0,0,.65-.78,2.16,2.16,0,0,0,.08-.59,1.16,1.16,0,0,0-.06-.38.59.59,0,0,0-.18-.29.85.85,0,0,0-.34-.18,1.66,1.66,0,0,0-.53-.07Zm-2.56,4,1.14-9.29h3.2a5.55,5.55,0,0,1,1.38.15,2.74,2.74,0,0,1,.94.44,1.63,1.63,0,0,1,.54.69,2.23,2.23,0,0,1,.17.88,2.64,2.64,0,0,1-.1.74,2,2,0,0,1-.31.65,2.36,2.36,0,0,1-.55.54,3,3,0,0,1-.82.42,2.07,2.07,0,0,1,1.11.63,1.65,1.65,0,0,1,.37,1.09,3,3,0,0,1-.25,1.2,2.71,2.71,0,0,1-.71,1,3.35,3.35,0,0,1-1.14.66,4.38,4.38,0,0,1-1.5.23Z" transform="translate(-396.47 -621.46)"/><path class="cls-3" d="M431.45,653.6a1.8,1.8,0,0,0,.71-.14,1.82,1.82,0,0,0,.56-.43,2.51,2.51,0,0,0,.41-.68,3.78,3.78,0,0,0,.21-.88l.68-5.53h2.08l-.68,5.53A5,5,0,0,1,435,653a4,4,0,0,1-.89,1.22,3.92,3.92,0,0,1-1.26.8,4.29,4.29,0,0,1-1.59.29,3.73,3.73,0,0,1-1.38-.24,2.81,2.81,0,0,1-1-.66,2.86,2.86,0,0,1-.63-1,3.77,3.77,0,0,1-.22-1.32,4.3,4.3,0,0,1,0-.62l.66-5.53h2.08l-.68,5.53a2,2,0,0,1,0,.23v.21a2,2,0,0,0,.36,1.25A1.28,1.28,0,0,0,431.45,653.6Z" transform="translate(-396.47 -621.46)"/><path class="cls-3" d="M441.89,647.8a.72.72,0,0,1-.23.23.53.53,0,0,1-.26.07.48.48,0,0,1-.29-.1l-.33-.21-.42-.21a1.5,1.5,0,0,0-.55-.1,1.38,1.38,0,0,0-.52.09,1.11,1.11,0,0,0-.36.23.93.93,0,0,0-.23.35,1.38,1.38,0,0,0-.07.43.64.64,0,0,0,.14.42,1.37,1.37,0,0,0,.39.31,4.58,4.58,0,0,0,.54.24l.61.23.62.29a2.24,2.24,0,0,1,.54.42,1.94,1.94,0,0,1,.39.6,2.3,2.3,0,0,1,.14.84,3.6,3.6,0,0,1-.24,1.32,3.23,3.23,0,0,1-.7,1.09,3.41,3.41,0,0,1-1.1.73,3.9,3.9,0,0,1-2.26.18,5.07,5.07,0,0,1-.78-.25,3.85,3.85,0,0,1-.69-.39,2.59,2.59,0,0,1-.54-.5l.74-1a.46.46,0,0,1,.21-.18.54.54,0,0,1,.27-.07.62.62,0,0,1,.35.12l.37.28a3.57,3.57,0,0,0,.48.27,1.62,1.62,0,0,0,.66.12,1.22,1.22,0,0,0,.9-.31,1.29,1.29,0,0,0,.32-.94.72.72,0,0,0-.15-.47,1.08,1.08,0,0,0-.38-.31,2.91,2.91,0,0,0-.53-.23l-.61-.21a6.65,6.65,0,0,1-.61-.27,1.93,1.93,0,0,1-.53-.41,1.85,1.85,0,0,1-.38-.62,2.36,2.36,0,0,1-.14-.9,3,3,0,0,1,.23-1.19,3.1,3.1,0,0,1,.66-1,3.29,3.29,0,0,1,1.06-.71,3.59,3.59,0,0,1,1.39-.26,3.31,3.31,0,0,1,.77.09,3.49,3.49,0,0,1,.69.22,3,3,0,0,1,.6.36,2.06,2.06,0,0,1,.45.43Z" transform="translate(-396.47 -621.46)"/><path class="cls-3" d="M446.22,646.11l-.08.64h-1.05l-.38,3.12H444l.37-3.12h-1l.09-.64Zm2.17,2.09a2,2,0,0,1,.08.31s0-.11.08-.16a1.19,1.19,0,0,1,.09-.15l1.21-2c0-.05.07-.09.1-.1a.39.39,0,0,1,.16,0h.66l-.46,3.76h-.68l.29-2.36.1-.45-1.31,2.15a.32.32,0,0,1-.28.17h-.11a.26.26,0,0,1-.25-.17l-.79-2.16v.46l-.3,2.36h-.67l.46-3.76h.65a.3.3,0,0,1,.15,0,.15.15,0,0,1,.09.1Z" transform="translate(-396.47 -621.46)"/><path class="cls-3" d="M406.56,674.62l.09.18a1.67,1.67,0,0,1,.08.2l.09-.2.09-.19.88-1.73a.18.18,0,0,1,0-.07l.05,0h.77v3.42H408v-2c0-.1,0-.2,0-.32l-.91,1.76a.24.24,0,0,1-.11.13.29.29,0,0,1-.16,0h-.11a.27.27,0,0,1-.16,0,.3.3,0,0,1-.12-.13l-.91-1.76a1,1,0,0,1,0,.17.76.76,0,0,1,0,.15v2h-.7v-3.42h.76l.06,0,.05.07Z" transform="translate(-396.47 -621.46)"/><path class="cls-3" d="M411.79,674.47a1.35,1.35,0,0,0-.07-.46.94.94,0,0,0-.19-.34.73.73,0,0,0-.3-.22,1,1,0,0,0-.41-.07,1.1,1.1,0,0,0-.41.07.73.73,0,0,0-.3.22.94.94,0,0,0-.19.34,1.79,1.79,0,0,0,0,.92.86.86,0,0,0,.19.34.73.73,0,0,0,.3.22,1.1,1.1,0,0,0,.41.07,1,1,0,0,0,.41-.07.73.73,0,0,0,.3-.22.86.86,0,0,0,.19-.34A1.35,1.35,0,0,0,411.79,674.47Zm.81,0a1.73,1.73,0,0,1-.13.69,1.5,1.5,0,0,1-.36.56,1.57,1.57,0,0,1-.56.37,2.09,2.09,0,0,1-1.45,0,1.7,1.7,0,0,1-.57-.37,1.8,1.8,0,0,1-.36-.56,1.82,1.82,0,0,1,.36-1.94,1.79,1.79,0,0,1,1.29-.5,2.11,2.11,0,0,1,.73.13,1.73,1.73,0,0,1,.56.38,1.46,1.46,0,0,1,.36.55A1.73,1.73,0,0,1,412.6,674.47Z" transform="translate(-396.47 -621.46)"/><path class="cls-3" d="M415.27,674.47a1.65,1.65,0,0,0-.06-.46,1.31,1.31,0,0,0-.19-.35.81.81,0,0,0-.3-.21,1.07,1.07,0,0,0-.41-.08h-.53v2.2h.53a1.07,1.07,0,0,0,.41-.07.84.84,0,0,0,.3-.22,1.17,1.17,0,0,0,.19-.35A1.65,1.65,0,0,0,415.27,674.47Zm.82,0a1.73,1.73,0,0,1-.13.69,1.76,1.76,0,0,1-.36.54,1.52,1.52,0,0,1-.56.35,1.9,1.9,0,0,1-.73.13H413v-3.42h1.33a1.9,1.9,0,0,1,.73.13,1.42,1.42,0,0,1,.56.36,1.55,1.55,0,0,1,.36.54A1.68,1.68,0,0,1,416.09,674.47Z" transform="translate(-396.47 -621.46)"/><path class="cls-3" d="M417.26,674.2h.42l.23,0a.36.36,0,0,0,.18-.07.3.3,0,0,0,.12-.13.52.52,0,0,0,0-.4.21.21,0,0,0-.09-.13.29.29,0,0,0-.16-.07.8.8,0,0,0-.23,0h-.47Zm0,.53v.85h.56a.65.65,0,0,0,.26,0,.33.33,0,0,0,.15-.1.29.29,0,0,0,.08-.14.51.51,0,0,0,0-.17.41.41,0,0,0,0-.16.21.21,0,0,0-.09-.13.36.36,0,0,0-.15-.08.9.9,0,0,0-.25,0Zm-.79,1.45v-3.42h1.26a2.58,2.58,0,0,1,.6.06,1.3,1.3,0,0,1,.41.19.8.8,0,0,1,.23.29.92.92,0,0,1,.07.38.85.85,0,0,1,0,.23,1,1,0,0,1-.11.2.59.59,0,0,1-.18.17,1.26,1.26,0,0,1-.26.13,1,1,0,0,1,.5.27.67.67,0,0,1,.16.47,1.11,1.11,0,0,1-.08.41,1.31,1.31,0,0,1-.25.33,1.22,1.22,0,0,1-.41.21,1.53,1.53,0,0,1-.54.08Z" transform="translate(-396.47 -621.46)"/><path class="cls-3" d="M421,675.55a.64.64,0,0,0,.28,0,.45.45,0,0,0,.21-.15.72.72,0,0,0,.14-.24,1.06,1.06,0,0,0,0-.33v-2h.8v2a1.5,1.5,0,0,1-.11.58,1.16,1.16,0,0,1-.29.46,1.21,1.21,0,0,1-.46.29,1.77,1.77,0,0,1-1.23,0,1.21,1.21,0,0,1-.46-.29,1.16,1.16,0,0,1-.29-.46,1.5,1.5,0,0,1-.11-.58v-2h.8v2a1.11,1.11,0,0,0,0,.33,1,1,0,0,0,.14.24.51.51,0,0,0,.21.15A.65.65,0,0,0,421,675.55Z" transform="translate(-396.47 -621.46)"/><path class="cls-3" d="M424.87,673.45a.35.35,0,0,1-.07.09.17.17,0,0,1-.1,0,.34.34,0,0,1-.12,0l-.14-.07a.75.75,0,0,0-.41-.11.5.5,0,0,0-.33.09.33.33,0,0,0-.11.26.22.22,0,0,0,.07.17.83.83,0,0,0,.17.12l.24.09.28.09a1.39,1.39,0,0,1,.28.12.74.74,0,0,1,.25.17.78.78,0,0,1,.17.26,1,1,0,0,1,.07.37,1.32,1.32,0,0,1-.08.44,1.13,1.13,0,0,1-.24.36,1.28,1.28,0,0,1-.39.24,1.38,1.38,0,0,1-.52.09l-.33,0-.32-.1A1.55,1.55,0,0,1,423,676a1.08,1.08,0,0,1-.24-.18l.24-.37.07-.07a.2.2,0,0,1,.11,0,.3.3,0,0,1,.14.05l.16.1.21.1a1,1,0,0,0,.27,0,.55.55,0,0,0,.34-.09.39.39,0,0,0,.12-.31.25.25,0,0,0-.07-.19.43.43,0,0,0-.17-.12,1.33,1.33,0,0,0-.24-.1l-.28-.08a1.36,1.36,0,0,1-.28-.11.69.69,0,0,1-.24-.18,1,1,0,0,1-.18-.26,1.27,1.27,0,0,1-.06-.41.84.84,0,0,1,.08-.38,1,1,0,0,1,.22-.33,1.14,1.14,0,0,1,.37-.22,1.31,1.31,0,0,1,.5-.09,1.55,1.55,0,0,1,.31,0,.89.89,0,0,1,.28.07l.25.11a1.16,1.16,0,0,1,.21.16Z" transform="translate(-396.47 -621.46)"/><path class="cls-3" d="M406.71,679.33s0,.07-.07.08a.15.15,0,0,1-.1,0l-.11,0-.14-.08-.18-.07a.59.59,0,0,0-.23,0,.48.48,0,0,0-.34.1.33.33,0,0,0-.11.25.29.29,0,0,0,.07.18.56.56,0,0,0,.17.11.85.85,0,0,0,.24.09l.29.1.28.11a1.08,1.08,0,0,1,.24.18.69.69,0,0,1,.17.26.8.8,0,0,1,.07.36,1.23,1.23,0,0,1-.08.44,1.31,1.31,0,0,1-.24.37,1.08,1.08,0,0,1-.39.24,1.39,1.39,0,0,1-.52.08,1.19,1.19,0,0,1-.32,0,1.68,1.68,0,0,1-.32-.09,2,2,0,0,1-.29-.14l-.24-.18.23-.38.08-.07.1,0a.37.37,0,0,1,.14,0l.16.1a1,1,0,0,0,.21.1.78.78,0,0,0,.28.05.52.52,0,0,0,.33-.1.35.35,0,0,0,.12-.3.27.27,0,0,0-.06-.19.35.35,0,0,0-.18-.13l-.24-.09-.28-.08-.28-.11a1.08,1.08,0,0,1-.24-.18.73.73,0,0,1-.17-.27,1,1,0,0,1-.07-.41.8.8,0,0,1,.08-.37.9.9,0,0,1,.23-.33,1.31,1.31,0,0,1,.36-.23,1.6,1.6,0,0,1,.51-.08,1.51,1.51,0,0,1,.3,0,1.38,1.38,0,0,1,.29.08l.24.11a.8.8,0,0,1,.21.15Z" transform="translate(-396.47 -621.46)"/><polygon class="cls-3" points="13.09 57.17 13.09 57.78 11.69 57.78 11.69 58.58 12.76 58.58 12.76 59.17 11.69 59.17 11.69 59.98 13.09 59.98 13.09 60.59 10.89 60.59 10.89 57.17 13.09 57.17"/><path class="cls-3" d="M410.8,680.24h.33a.77.77,0,0,0,.27,0,.4.4,0,0,0,.19-.11.62.62,0,0,0,.11-.17,1.52,1.52,0,0,0,0-.21.46.46,0,0,0-.15-.36.71.71,0,0,0-.45-.12h-.33Zm0,.55v1.27H410v-3.43h1.12a2.35,2.35,0,0,1,.63.08,1.18,1.18,0,0,1,.42.21.73.73,0,0,1,.25.33,1,1,0,0,1,.07.4.89.89,0,0,1-.18.59.73.73,0,0,1-.21.22,1.24,1.24,0,0,1-.3.17.38.38,0,0,1,.15.09.44.44,0,0,1,.12.15l.73,1.19h-.72a.32.32,0,0,1-.29-.15l-.56-1-.09-.09a.26.26,0,0,0-.14,0Z" transform="translate(-396.47 -621.46)"/><path class="cls-3" d="M412.86,678.63h.63a.29.29,0,0,1,.17,0,.23.23,0,0,1,.1.12l.66,1.84c0,.08.06.16.09.26s.06.19.09.3a2.21,2.21,0,0,1,.07-.3c0-.1.06-.18.09-.26l.66-1.84a.19.19,0,0,1,.09-.11.24.24,0,0,1,.17-.06h.64L415,682.06h-.72Z" transform="translate(-396.47 -621.46)"/><polygon class="cls-3" points="22.34 57.17 22.34 57.78 20.93 57.78 20.93 58.58 22.01 58.58 22.01 59.17 20.93 59.17 20.93 59.98 22.34 59.98 22.34 60.59 20.13 60.59 20.13 57.17 22.34 57.17"/><path class="cls-3" d="M420.05,680.24h.32a.7.7,0,0,0,.27,0,.36.36,0,0,0,.19-.11.45.45,0,0,0,.11-.17.76.76,0,0,0,0-.21.46.46,0,0,0-.15-.36.69.69,0,0,0-.45-.12h-.32Zm0,.55v1.27h-.79v-3.43h1.11a2.25,2.25,0,0,1,.63.08,1.15,1.15,0,0,1,.43.21.78.78,0,0,1,.24.33,1,1,0,0,1,.08.4,1.19,1.19,0,0,1-.05.32,1.11,1.11,0,0,1-.13.27.92.92,0,0,1-.22.22,1.17,1.17,0,0,1-.29.17.6.6,0,0,1,.15.09,1,1,0,0,1,.12.15l.73,1.19h-.72a.31.31,0,0,1-.29-.15l-.57-1a.2.2,0,0,0-.09-.09.26.26,0,0,0-.14,0Z" transform="translate(-396.47 -621.46)"/><path class="cls-3" d="M423.86,681a.66.66,0,0,0,0,.21.54.54,0,0,0,.1.16.56.56,0,0,0,.15.1.64.64,0,0,0,.2,0,.92.92,0,0,0,.29,0,.8.8,0,0,0,.25-.11l-.79-.84a.76.76,0,0,0-.18.23A.75.75,0,0,0,423.86,681Zm.71-2.43a1.25,1.25,0,0,1,.4.06,1,1,0,0,1,.29.18.76.76,0,0,1,.19.25,1,1,0,0,1,.09.3l-.47.09h0a.15.15,0,0,1-.15-.1.42.42,0,0,0-.13-.18.23.23,0,0,0-.18-.07.33.33,0,0,0-.15,0,.39.39,0,0,0-.1.08.24.24,0,0,0-.06.11.78.78,0,0,0,0,.14.49.49,0,0,0,0,.12.53.53,0,0,0,0,.12l.07.11.11.14.85.89a1.51,1.51,0,0,0,.1-.3,1.54,1.54,0,0,0,0-.31.22.22,0,0,1,.05-.11.17.17,0,0,1,.1,0h.46a2.25,2.25,0,0,1-.09.64,1.93,1.93,0,0,1-.26.54l.72.76h-.82l-.08,0-.07,0-.07-.06-.15-.16a1.54,1.54,0,0,1-.48.24,1.77,1.77,0,0,1-.56.08,1.14,1.14,0,0,1-.41-.07.9.9,0,0,1-.34-.2,1,1,0,0,1-.25-.31.84.84,0,0,1-.1-.42.93.93,0,0,1,.05-.29,1.3,1.3,0,0,1,.14-.26,2.09,2.09,0,0,1,.2-.22l.27-.17a1.17,1.17,0,0,1-.21-.65.84.84,0,0,1,.07-.35.77.77,0,0,1,.19-.28.87.87,0,0,1,.32-.2A1.14,1.14,0,0,1,424.57,678.6Z" transform="translate(-396.47 -621.46)"/><path class="cls-3" d="M429.89,681.17H430a.1.1,0,0,1,.05,0l.32.33a1.3,1.3,0,0,1-.52.41,1.83,1.83,0,0,1-.73.13,2,2,0,0,1-.71-.12,1.64,1.64,0,0,1-.52-.37,1.84,1.84,0,0,1-.33-.56,2,2,0,0,1-.11-.7,1.78,1.78,0,0,1,.13-.7,1.75,1.75,0,0,1,.36-.55,1.54,1.54,0,0,1,.57-.36,1.9,1.9,0,0,1,.73-.13,2,2,0,0,1,.36,0,1.19,1.19,0,0,1,.32.1,1.15,1.15,0,0,1,.27.14,1,1,0,0,1,.22.18l-.27.36a.17.17,0,0,1-.06.06.13.13,0,0,1-.1,0l-.07,0-.09-.05-.09,0a.34.34,0,0,0-.12-.06l-.16-.05-.22,0a1,1,0,0,0-.39.08.84.84,0,0,0-.31.22,1,1,0,0,0-.2.34,1.55,1.55,0,0,0,0,.92,1,1,0,0,0,.2.35.86.86,0,0,0,.29.21.81.81,0,0,0,.35.07h.19a.74.74,0,0,0,.17,0l.15-.07.14-.1.06,0Z" transform="translate(-396.47 -621.46)"/><polygon class="cls-3" points="35.01 59.96 36.28 59.96 36.28 60.59 34.22 60.59 34.22 57.17 35.01 57.17 35.01 59.96"/><rect class="cls-3" x="36.72" y="57.17" width="0.8" height="3.43"/><polygon class="cls-3" points="40.36 57.17 40.36 57.78 38.96 57.78 38.96 58.58 40.03 58.58 40.03 59.17 38.96 59.17 38.96 59.98 40.36 59.98 40.36 60.59 38.16 60.59 38.16 57.17 40.36 57.17"/><path class="cls-3" d="M437.7,678.63h.09l.06,0a.09.09,0,0,1,0,0l.06.06,1.63,2.06c0-.06,0-.13,0-.19v-2h.7v3.43h-.41a.38.38,0,0,1-.16,0,.35.35,0,0,1-.12-.1l-1.62-2,0,.17v2h-.7v-3.43Z" transform="translate(-396.47 -621.46)"/><polygon class="cls-3" points="46.85 57.17 46.85 57.8 45.89 57.8 45.89 60.59 45.09 60.59 45.09 57.8 44.13 57.8 44.13 57.17 46.85 57.17"/><polygon class="cls-4" points="65.29 0 0.02 0 11.07 11.05 76.34 11.05 76.34 11.05 65.29 0"/></svg>