<?xml version="1.0" encoding="utf-8"?><svg id="SOEM" xmlns="http://www.w3.org/2000/svg" xmlns:xlink="http://www.w3.org/1999/xlink" viewBox="0 0 76.33 65.27"><defs><style>.cls-1{fill:#32b2ea;}.cls-2{fill:#1e86c6;}.cls-3{fill:#fff;}.cls-4{fill:url(#Namnlös_övertoning_25);}</style><linearGradient id="Namnlös_övertoning_25" x1="0.01" y1="5.53" x2="76.33" y2="5.53" gradientUnits="userSpaceOnUse"><stop offset="0" stop-color="#be0f29"/><stop offset="1" stop-color="#be0f29"/><stop offset="1" stop-color="#f7941e"/></linearGradient></defs><title>soem</title><polygon class="cls-1" points="11.03 14.06 0 25.09 0 44.19 76.33 44.19 76.33 14.06 11.03 14.06"/><rect class="cls-2" y="47.2" width="76.33" height="18.08"/><path class="cls-3" d="M227.59,560a.68.68,0,0,1-.23.22.44.44,0,0,1-.26.07.55.55,0,0,1-.29-.09l-.33-.21a2.06,2.06,0,0,0-.42-.21,1.51,1.51,0,0,0-.55-.09,1.39,1.39,0,0,0-.52.08,1,1,0,0,0-.36.23,1,1,0,0,0-.22.34,1.21,1.21,0,0,0-.07.43.62.62,0,0,0,.14.43,1.18,1.18,0,0,0,.38.3,3.37,3.37,0,0,0,.54.24l.61.24a4.39,4.39,0,0,1,.62.29,1.87,1.87,0,0,1,.54.42,1.54,1.54,0,0,1,.38.6,2.1,2.1,0,0,1,.15.84,3.6,3.6,0,0,1-.24,1.32,3.22,3.22,0,0,1-.69,1.08,3.59,3.59,0,0,1-1.11.74,3.71,3.71,0,0,1-1.45.26,4.45,4.45,0,0,1-.81-.08,6.46,6.46,0,0,1-.78-.25,5.13,5.13,0,0,1-.69-.39,2.89,2.89,0,0,1-.54-.5l.74-1a.63.63,0,0,1,.21-.18.68.68,0,0,1,.27-.07.54.54,0,0,1,.35.13l.37.27a4.17,4.17,0,0,0,.47.28,1.72,1.72,0,0,0,.68.12,1.21,1.21,0,0,0,.89-.32,1.25,1.25,0,0,0,.32-.93.72.72,0,0,0-.15-.47,1.1,1.1,0,0,0-.38-.32,2.64,2.64,0,0,0-.53-.22l-.61-.21a6.65,6.65,0,0,1-.61-.27,2.15,2.15,0,0,1-.53-.41,2,2,0,0,1-.38-.62,2.68,2.68,0,0,1-.14-.91,3,3,0,0,1,.23-1.18,3.28,3.28,0,0,1,.67-1,3.39,3.39,0,0,1,1.05-.7,3.59,3.59,0,0,1,1.39-.26,3.77,3.77,0,0,1,.76.08,4,4,0,0,1,.71.24,3.12,3.12,0,0,1,.59.34,2.36,2.36,0,0,1,.45.44Z" transform="translate(-213.8 -533.69)"/><path class="cls-3" d="M235.19,562.27a3.4,3.4,0,0,0-.14-1,2.23,2.23,0,0,0-.4-.8,1.73,1.73,0,0,0-.65-.52,2,2,0,0,0-.86-.18A2.46,2.46,0,0,0,232,560a2.57,2.57,0,0,0-.87.74,3.77,3.77,0,0,0-.54,1.16,5.74,5.74,0,0,0-.18,1.49,3.68,3.68,0,0,0,.13,1,2.39,2.39,0,0,0,.39.8,1.91,1.91,0,0,0,.64.52,2.07,2.07,0,0,0,.88.18,2.52,2.52,0,0,0,1.14-.26,2.65,2.65,0,0,0,.86-.74,3.61,3.61,0,0,0,.55-1.15A5.33,5.33,0,0,0,235.19,562.27Zm2.13,0a5.68,5.68,0,0,1-.18,1.44,5.21,5.21,0,0,1-1.27,2.36,5.14,5.14,0,0,1-1,.83,4.94,4.94,0,0,1-2.62.71,4.08,4.08,0,0,1-1.65-.31,3.75,3.75,0,0,1-1.24-.89,4,4,0,0,1-.79-1.31,5.06,5.06,0,0,1-.26-1.63,5.68,5.68,0,0,1,.17-1.44,5.4,5.4,0,0,1,.5-1.29,5,5,0,0,1,.78-1.08,4.77,4.77,0,0,1,1-.82,4.82,4.82,0,0,1,1.23-.53,4.93,4.93,0,0,1,1.4-.19,3.91,3.91,0,0,1,1.64.33,3.44,3.44,0,0,1,1.24.87,4,4,0,0,1,.78,1.32A4.85,4.85,0,0,1,237.32,562.22Z" transform="translate(-213.8 -533.69)"/><polygon class="cls-3" points="30.25 26.08 26.81 26.08 26.53 28.32 29.17 28.32 28.96 29.87 26.34 29.87 26.06 32.17 29.52 32.17 29.32 33.77 23.77 33.77 24.92 24.48 30.45 24.48 30.25 26.08"/><path class="cls-3" d="M249.2,563.38c.09.27.16.54.23.82a4,4,0,0,1,.21-.41c.07-.14.15-.27.23-.41l2.84-4.89a.53.53,0,0,1,.33-.27,1.57,1.57,0,0,1,.37-.05H255l-1.15,9.29h-1.82l.64-5.41c0-.11,0-.24.06-.37s.07-.29.1-.44l-2.8,4.8a.78.78,0,0,1-.33.32.93.93,0,0,1-.44.11H249a.83.83,0,0,1-.43-.11.61.61,0,0,1-.25-.32l-1.63-4.81,0,.42c0,.14,0,.26,0,.37l-.64,5.44h-1.84l1.15-9.29h1.82a.37.37,0,0,1,.18,0,.29.29,0,0,1,.14.08.67.67,0,0,1,.09.19Z" transform="translate(-213.8 -533.69)"/><path class="cls-3" d="M258.91,558.34l-.08.64h-1l-.39,3.12h-.76L257,559h-1l.09-.64Zm2.17,2.08a2.14,2.14,0,0,1,.08.32c0-.06,0-.11.08-.16l.09-.16,1.21-1.95a.32.32,0,0,1,.1-.12h.82L263,562.1h-.68l.29-2.36.1-.46-1.31,2.15a.29.29,0,0,1-.28.17H261a.23.23,0,0,1-.24-.17l-.8-2.15v.46l-.29,2.36H259l.46-3.76h.81a.2.2,0,0,1,.09.12Z" transform="translate(-213.8 -533.69)"/><polygon class="cls-3" points="10.54 51.29 10.54 51.91 9.14 51.91 9.14 52.7 10.21 52.7 10.21 53.29 9.14 53.29 9.14 54.11 10.54 54.11 10.54 54.72 8.34 54.72 8.34 51.29 10.54 51.29"/><polygon class="cls-3" points="13.48 51.29 13.48 51.93 12.52 51.93 12.52 54.72 11.72 54.72 11.72 51.93 10.76 51.93 10.76 51.29 13.48 51.29"/><polygon class="cls-3" points="16.8 54.72 16 54.72 16 53.27 14.61 53.27 14.61 54.72 13.81 54.72 13.81 51.29 14.61 51.29 14.61 52.73 16 52.73 16 51.29 16.8 51.29 16.8 54.72"/><polygon class="cls-3" points="19.57 51.29 19.57 51.91 18.16 51.91 18.16 52.7 19.24 52.7 19.24 53.29 18.16 53.29 18.16 54.11 19.57 54.11 19.57 54.72 17.36 54.72 17.36 51.29 19.57 51.29"/><path class="cls-3" d="M234.62,586.59h.32a.73.73,0,0,0,.27,0,.4.4,0,0,0,.19-.11.37.37,0,0,0,.1-.17.46.46,0,0,0,0-.21.43.43,0,0,0-.15-.35.65.65,0,0,0-.45-.13h-.32Zm0,.56v1.26h-.8V585h1.12a2.3,2.3,0,0,1,.63.08,1.23,1.23,0,0,1,.43.21,1,1,0,0,1,.24.33,1,1,0,0,1,.07.4,1.12,1.12,0,0,1,0,.32.78.78,0,0,1-.14.27.87.87,0,0,1-.21.22,1.69,1.69,0,0,1-.29.17.42.42,0,0,1,.14.09.64.64,0,0,1,.13.15l.73,1.19h-.72a.31.31,0,0,1-.29-.15l-.57-1a.3.3,0,0,0-.09-.1.28.28,0,0,0-.14,0Z" transform="translate(-213.8 -533.69)"/><path class="cls-3" d="M239.13,587.52h.06l.05,0,.31.33a1.21,1.21,0,0,1-.51.41,1.84,1.84,0,0,1-.74.14,1.94,1.94,0,0,1-.7-.13,1.64,1.64,0,0,1-.52-.37,1.47,1.47,0,0,1-.33-.55,2,2,0,0,1-.12-.7,1.83,1.83,0,0,1,.14-.71,1.46,1.46,0,0,1,.36-.55,1.54,1.54,0,0,1,.57-.36,1.88,1.88,0,0,1,.72-.13,2.22,2.22,0,0,1,.37,0,1,1,0,0,1,.31.1,1.47,1.47,0,0,1,.28.14,2.13,2.13,0,0,1,.22.18l-.27.36-.06.06a.15.15,0,0,1-.1,0l-.08,0-.08-.05-.09,0-.12-.06-.16,0-.22,0a1.06,1.06,0,0,0-.4.08.93.93,0,0,0-.31.22,1.11,1.11,0,0,0-.19.34,1.35,1.35,0,0,0-.07.46,1.31,1.31,0,0,0,.07.46,1.17,1.17,0,0,0,.19.35.86.86,0,0,0,.29.21.84.84,0,0,0,.35.07h.2a.41.41,0,0,0,.16,0,.52.52,0,0,0,.15-.07l.14-.1.06,0Z" transform="translate(-213.8 -533.69)"/><path class="cls-3" d="M240.91,587.1h.93l-.31-.94c0-.06-.05-.13-.08-.21s0-.17-.08-.26c0,.09-.05.19-.07.27l-.08.21Zm2.19,1.31h-.61a.23.23,0,0,1-.17,0,.18.18,0,0,1-.09-.12l-.21-.6h-1.3l-.2.6a.47.47,0,0,1-.09.12.31.31,0,0,1-.17,0h-.62L241,585h.82Z" transform="translate(-213.8 -533.69)"/><polygon class="cls-3" points="31.69 51.29 31.69 51.93 30.72 51.93 30.72 54.72 29.93 54.72 29.93 51.93 28.96 51.93 28.96 51.29 31.69 51.29"/><path class="cls-3" d="M223.9,592.72c0,.06,0,.12.08.19l.09.19a1.67,1.67,0,0,1,.08-.2l.09-.19.88-1.73,0-.07.06,0,.06,0h.7v3.42h-.7v-2c0-.1,0-.2,0-.32l-.9,1.77a.43.43,0,0,1-.11.12.33.33,0,0,1-.17,0H224a.29.29,0,0,1-.16,0,.46.46,0,0,1-.12-.12l-.91-1.77a1,1,0,0,1,0,.17v2.11h-.69v-3.42h.69l.07,0,.05,0a.18.18,0,0,1,0,.07Z" transform="translate(-213.8 -533.69)"/><path class="cls-3" d="M227.54,593h.94l-.32-.94a1.28,1.28,0,0,0-.07-.21c0-.08-.05-.17-.08-.26,0,.09,0,.18-.08.26s-.05.15-.07.21Zm2.2,1.3h-.61a.29.29,0,0,1-.17,0,.31.31,0,0,1-.1-.13l-.2-.59h-1.3l-.2.59a.27.27,0,0,1-.09.12.26.26,0,0,1-.17,0h-.62l1.32-3.42h.82Z" transform="translate(-213.8 -533.69)"/><path class="cls-3" d="M231.93,591.55a.24.24,0,0,1-.08.09.13.13,0,0,1-.1,0l-.11,0-.14-.08-.18-.08a.85.85,0,0,0-.23,0,.55.55,0,0,0-.34.09.33.33,0,0,0-.1.26.24.24,0,0,0,.06.17.43.43,0,0,0,.17.12l.25.09.28.09a1.69,1.69,0,0,1,.28.12,1,1,0,0,1,.24.17.9.9,0,0,1,.17.26.82.82,0,0,1,.07.37,1.11,1.11,0,0,1-.08.44.88.88,0,0,1-.24.36,1,1,0,0,1-.39.24,1.36,1.36,0,0,1-.51.09l-.33,0a1.68,1.68,0,0,1-.32-.09,1.59,1.59,0,0,1-.29-.15,1.08,1.08,0,0,1-.24-.18l.23-.37a.27.27,0,0,1,.08-.07.18.18,0,0,1,.1,0,.25.25,0,0,1,.14,0l.16.1a1,1,0,0,0,.21.1.79.79,0,0,0,.28,0,.52.52,0,0,0,.33-.09.35.35,0,0,0,.13-.3.32.32,0,0,0-.07-.2.41.41,0,0,0-.18-.12.79.79,0,0,0-.23-.09l-.29-.09-.28-.1a1.08,1.08,0,0,1-.24-.18.83.83,0,0,1-.17-.27,1.21,1.21,0,0,1-.07-.41,1,1,0,0,1,.08-.37.86.86,0,0,1,.23-.33,1.06,1.06,0,0,1,.37-.23,1.28,1.28,0,0,1,.5-.09,1.45,1.45,0,0,1,.3,0,1.37,1.37,0,0,1,.29.07l.25.11a1.66,1.66,0,0,1,.21.16Z" transform="translate(-213.8 -533.69)"/><polygon class="cls-3" points="21.25 57.17 21.25 57.8 20.29 57.8 20.29 60.59 19.49 60.59 19.49 57.8 18.53 57.8 18.53 57.17 21.25 57.17"/><polygon class="cls-3" points="23.78 57.17 23.78 57.78 22.38 57.78 22.38 58.58 23.45 58.58 23.45 59.17 22.38 59.17 22.38 59.98 23.78 59.98 23.78 60.59 21.58 60.59 21.58 57.17 23.78 57.17"/><path class="cls-3" d="M238.83,592.47h.32a.79.79,0,0,0,.28,0,.61.61,0,0,0,.18-.11.45.45,0,0,0,.11-.17.78.78,0,0,0,0-.22.44.44,0,0,0-.15-.35.69.69,0,0,0-.45-.12h-.32Zm0,.55v1.26H238v-3.42h1.11a2.38,2.38,0,0,1,.64.08,1.18,1.18,0,0,1,.42.21.82.82,0,0,1,.24.32,1.07,1.07,0,0,1,.08.41.81.81,0,0,1-.05.31,1,1,0,0,1-.13.28.92.92,0,0,1-.22.22,1.15,1.15,0,0,1-.29.16l.15.1a.41.41,0,0,1,.12.14l.73,1.19h-.72a.32.32,0,0,1-.29-.15l-.56-1-.09-.09a.29.29,0,0,0-.14,0Z" transform="translate(-213.8 -533.69)"/><polygon class="cls-4" points="65.29 0 0.01 0 11.06 11.05 76.33 11.05 76.33 11.05 65.29 0"/></svg>