<?xml version="1.0" encoding="utf-8"?><svg id="SOES" xmlns="http://www.w3.org/2000/svg" xmlns:xlink="http://www.w3.org/1999/xlink" viewBox="0 0 76.33 65.27"><defs><style>.cls-1{fill:#32b2ea;}.cls-2{fill:url(#Namnlös_övertoning_25);}.cls-3{fill:#1e86c6;}.cls-4{fill:#fff;}</style><linearGradient id="Namnlös_övertoning_25" x1="0.01" y1="5.53" x2="76.33" y2="5.53" gradientUnits="userSpaceOnUse"><stop offset="0" stop-color="#be0f29"/><stop offset="1" stop-color="#be0f29"/><stop offset="1" stop-color="#f7941e"/></linearGradient></defs><title>soes</title><polygon class="cls-1" points="11.03 14.06 0 25.09 0 44.19 76.33 44.19 76.33 14.06 11.03 14.06"/><polygon class="cls-2" points="65.29 0 0.01 0 11.07 11.05 76.33 11.05 76.33 11.05 65.29 0"/><rect class="cls-3" y="47.2" width="76.33" height="18.08"/><path class="cls-4" d="M318.92,560a.76.76,0,0,1-.22.22.44.44,0,0,1-.26.07.58.58,0,0,1-.3-.09l-.33-.21a2.06,2.06,0,0,0-.42-.21,1.51,1.51,0,0,0-.55-.09,1.39,1.39,0,0,0-.52.08,1,1,0,0,0-.36.23,1,1,0,0,0-.22.34,1.21,1.21,0,0,0-.07.43.62.62,0,0,0,.14.43,1.44,1.44,0,0,0,.38.3,3.37,3.37,0,0,0,.54.24l.61.24a3.92,3.92,0,0,1,.62.29,1.87,1.87,0,0,1,.54.42,1.56,1.56,0,0,1,.39.6,2.29,2.29,0,0,1,.15.84,3.6,3.6,0,0,1-.25,1.32,3.22,3.22,0,0,1-.69,1.08,3.43,3.43,0,0,1-1.1.74,3.76,3.76,0,0,1-1.46.26,4.45,4.45,0,0,1-.81-.08,6.46,6.46,0,0,1-.78-.25,5.83,5.83,0,0,1-.69-.39,2.89,2.89,0,0,1-.54-.5l.74-1a.79.79,0,0,1,.22-.18.68.68,0,0,1,.27-.07.52.52,0,0,1,.34.13l.38.27a2.92,2.92,0,0,0,.47.28,1.64,1.64,0,0,0,.67.12,1.2,1.2,0,0,0,.89-.32,1.25,1.25,0,0,0,.32-.93.77.77,0,0,0-.14-.47,1.32,1.32,0,0,0-.38-.32,3.25,3.25,0,0,0-.53-.22l-.61-.21c-.21-.08-.42-.17-.62-.27a2.15,2.15,0,0,1-.53-.41,2,2,0,0,1-.38-.62,2.68,2.68,0,0,1-.14-.91,3.18,3.18,0,0,1,.23-1.18,3.28,3.28,0,0,1,.67-1,3.39,3.39,0,0,1,1.05-.7,3.62,3.62,0,0,1,1.39-.26,3.35,3.35,0,0,1,1.47.32,3.12,3.12,0,0,1,.59.34,2.76,2.76,0,0,1,.46.44Z" transform="translate(-305.14 -533.69)"/><path class="cls-4" d="M326.52,562.27a3.4,3.4,0,0,0-.14-1,2.23,2.23,0,0,0-.4-.8,1.77,1.77,0,0,0-.64-.52,2.05,2.05,0,0,0-.87-.18,2.46,2.46,0,0,0-1.14.26,2.57,2.57,0,0,0-.87.74,3.54,3.54,0,0,0-.53,1.16,5.33,5.33,0,0,0-.19,1.49,3.66,3.66,0,0,0,.14,1,2.2,2.2,0,0,0,.38.8,1.94,1.94,0,0,0,.65.52,2,2,0,0,0,.87.18,2.46,2.46,0,0,0,1.14-.26,2.55,2.55,0,0,0,.86-.74,3.61,3.61,0,0,0,.55-1.15A5.33,5.33,0,0,0,326.52,562.27Zm2.13,0a5.68,5.68,0,0,1-.18,1.44A5.21,5.21,0,0,1,327.2,566a4.81,4.81,0,0,1-1,.83,5.64,5.64,0,0,1-1.23.53,5.37,5.37,0,0,1-1.4.18,4.15,4.15,0,0,1-1.65-.31,3.75,3.75,0,0,1-1.24-.89,3.84,3.84,0,0,1-.78-1.31,4.81,4.81,0,0,1-.27-1.63,6.17,6.17,0,0,1,.17-1.44,5.86,5.86,0,0,1,.5-1.29,5.32,5.32,0,0,1,.78-1.08,4.77,4.77,0,0,1,1-.82,4.82,4.82,0,0,1,1.23-.53,4.93,4.93,0,0,1,1.4-.19,3.91,3.91,0,0,1,1.64.33,3.35,3.35,0,0,1,1.24.87,4,4,0,0,1,.78,1.32A4.85,4.85,0,0,1,328.65,562.22Z" transform="translate(-305.14 -533.69)"/><polygon class="cls-4" points="30.25 26.08 26.81 26.08 26.53 28.32 29.17 28.32 28.96 29.87 26.34 29.87 26.06 32.17 29.52 32.17 29.32 33.77 23.77 33.77 24.92 24.48 30.46 24.48 30.25 26.08"/><path class="cls-4" d="M341.24,560a.66.66,0,0,1-.22.22.44.44,0,0,1-.26.07.58.58,0,0,1-.3-.09,2.37,2.37,0,0,0-.33-.21,1.74,1.74,0,0,0-.41-.21,1.57,1.57,0,0,0-.56-.09,1.37,1.37,0,0,0-.51.08.83.83,0,0,0-.36.23,1,1,0,0,0-.23.34,1.21,1.21,0,0,0-.07.43.67.67,0,0,0,.14.43,1.44,1.44,0,0,0,.38.3,4.41,4.41,0,0,0,.54.24l.62.24a5,5,0,0,1,.62.29,2.18,2.18,0,0,1,.54.42,1.67,1.67,0,0,1,.38.6,2.1,2.1,0,0,1,.15.84,3.41,3.41,0,0,1-.25,1.32,3.22,3.22,0,0,1-.69,1.08,3.43,3.43,0,0,1-1.1.74,3.76,3.76,0,0,1-1.46.26,4.45,4.45,0,0,1-.81-.08,7.08,7.08,0,0,1-.78-.25,5,5,0,0,1-.68-.39,2.67,2.67,0,0,1-.55-.5l.75-1a.63.63,0,0,1,.21-.18.68.68,0,0,1,.27-.07.52.52,0,0,1,.34.13l.38.27a3.43,3.43,0,0,0,.47.28,1.67,1.67,0,0,0,.67.12,1.18,1.18,0,0,0,.89-.32,1.25,1.25,0,0,0,.32-.93.77.77,0,0,0-.14-.47,1.2,1.2,0,0,0-.38-.32,2.92,2.92,0,0,0-.53-.22l-.61-.21a6.65,6.65,0,0,1-.61-.27,2.41,2.41,0,0,1-.54-.41,2.24,2.24,0,0,1-.38-.62,2.68,2.68,0,0,1-.14-.91,3.18,3.18,0,0,1,.23-1.18,3.47,3.47,0,0,1,.67-1,3.39,3.39,0,0,1,1-.7,3.68,3.68,0,0,1,1.4-.26,3.77,3.77,0,0,1,.76.08,3.6,3.6,0,0,1,.7.24,2.84,2.84,0,0,1,.59.34,2.42,2.42,0,0,1,.46.44Z" transform="translate(-305.14 -533.69)"/><path class="cls-4" d="M345.58,558.34l-.08.64h-1.05l-.38,3.12h-.77l.38-3.12h-1.05l.09-.64Zm2.17,2.08a2.06,2.06,0,0,1,.07.32l.08-.16.1-.16,1.2-2a.37.37,0,0,1,.11-.11h.81l-.45,3.76H349l.3-2.36.1-.46-1.31,2.15a.32.32,0,0,1-.29.17h-.11a.23.23,0,0,1-.24-.17l-.8-2.15v.46l-.29,2.36h-.67l.45-3.76h.81a.17.17,0,0,1,.09.11Z" transform="translate(-305.14 -533.69)"/><polygon class="cls-4" points="10.54 51.29 10.54 51.91 9.14 51.91 9.14 52.7 10.21 52.7 10.21 53.29 9.14 53.29 9.14 54.11 10.54 54.11 10.54 54.72 8.34 54.72 8.34 51.29 10.54 51.29"/><polygon class="cls-4" points="13.48 51.29 13.48 51.93 12.52 51.93 12.52 54.72 11.72 54.72 11.72 51.93 10.76 51.93 10.76 51.29 13.48 51.29"/><polygon class="cls-4" points="16.8 54.72 16 54.72 16 53.27 14.61 53.27 14.61 54.72 13.81 54.72 13.81 51.29 14.61 51.29 14.61 52.73 16 52.73 16 51.29 16.8 51.29 16.8 54.72"/><polygon class="cls-4" points="19.57 51.29 19.57 51.91 18.16 51.91 18.16 52.7 19.24 52.7 19.24 53.29 18.16 53.29 18.16 54.11 19.57 54.11 19.57 54.72 17.36 54.72 17.36 51.29 19.57 51.29"/><path class="cls-4" d="M326,586.59h.32a.7.7,0,0,0,.27,0,.4.4,0,0,0,.19-.11.39.39,0,0,0,.11-.17.66.66,0,0,0,0-.21.43.43,0,0,0-.15-.35.64.64,0,0,0-.45-.13H326Zm0,.56v1.26h-.79V585h1.11a2.25,2.25,0,0,1,.63.08,1.15,1.15,0,0,1,.43.21.85.85,0,0,1,.24.33,1,1,0,0,1,.07.4,1.12,1.12,0,0,1,0,.32,1,1,0,0,1-.13.27.92.92,0,0,1-.22.22,1.17,1.17,0,0,1-.29.17.6.6,0,0,1,.15.09l.12.15.73,1.19h-.72a.32.32,0,0,1-.29-.15l-.57-1a.18.18,0,0,0-.09-.1.28.28,0,0,0-.14,0Z" transform="translate(-305.14 -533.69)"/><path class="cls-4" d="M330.46,587.52h.06a.1.1,0,0,1,.05,0l.32.33a1.3,1.3,0,0,1-.52.41,1.84,1.84,0,0,1-.74.14,2,2,0,0,1-.7-.13,1.64,1.64,0,0,1-.52-.37,1.79,1.79,0,0,1-.33-.55,2,2,0,0,1-.12-.7,1.83,1.83,0,0,1,.14-.71,1.59,1.59,0,0,1,.36-.55,1.54,1.54,0,0,1,.57-.36,1.9,1.9,0,0,1,.73-.13,2.1,2.1,0,0,1,.36,0,1.19,1.19,0,0,1,.32.1,1.15,1.15,0,0,1,.27.14,2.13,2.13,0,0,1,.22.18l-.27.36-.06.06a.13.13,0,0,1-.1,0l-.08,0-.08-.05-.09,0-.12-.06-.16,0-.22,0a1,1,0,0,0-.39.08.84.84,0,0,0-.31.22,1,1,0,0,0-.2.34,1.35,1.35,0,0,0-.07.46,1.31,1.31,0,0,0,.07.46,1.17,1.17,0,0,0,.19.35,1,1,0,0,0,.29.21.86.86,0,0,0,.36.07h.19a.47.47,0,0,0,.17,0l.15-.07.14-.1s0,0,.05,0Z" transform="translate(-305.14 -533.69)"/><path class="cls-4" d="M332.24,587.1h.93l-.31-.94c0-.06-.05-.13-.07-.21a2,2,0,0,1-.08-.26c0,.09,0,.19-.08.27s-.05.15-.08.21Zm2.2,1.31h-.62a.25.25,0,0,1-.17,0,.22.22,0,0,1-.09-.12l-.2-.6h-1.31l-.2.6a.31.31,0,0,1-.09.12.31.31,0,0,1-.17,0H331L332.3,585h.81Z" transform="translate(-305.14 -533.69)"/><polygon class="cls-4" points="31.69 51.29 31.69 51.93 30.73 51.93 30.73 54.72 29.93 54.72 29.93 51.93 28.97 51.93 28.97 51.29 31.69 51.29"/><path class="cls-4" d="M315.38,591.55a.22.22,0,0,1-.07.09.15.15,0,0,1-.1,0l-.12,0-.14-.08a.75.75,0,0,0-.41-.11.5.5,0,0,0-.33.09.33.33,0,0,0-.11.26.21.21,0,0,0,.07.17.43.43,0,0,0,.17.12l.24.09.28.09a1.39,1.39,0,0,1,.28.12.92.92,0,0,1,.25.17.9.9,0,0,1,.17.26.82.82,0,0,1,.07.37,1.32,1.32,0,0,1-.08.44,1,1,0,0,1-.25.36,1,1,0,0,1-.38.24,1.42,1.42,0,0,1-.52.09l-.33,0a1.92,1.92,0,0,1-.32-.09,1.59,1.59,0,0,1-.29-.15.84.84,0,0,1-.23-.18l.23-.37a.19.19,0,0,1,.08-.07.16.16,0,0,1,.1,0,.27.27,0,0,1,.14,0l.16.1a1,1,0,0,0,.21.1.79.79,0,0,0,.28,0,.54.54,0,0,0,.33-.09.38.38,0,0,0,.12-.3.32.32,0,0,0-.06-.2.57.57,0,0,0-.18-.12.85.85,0,0,0-.24-.09c-.09,0-.19,0-.28-.09l-.28-.1a1.44,1.44,0,0,1-.25-.18,1,1,0,0,1-.17-.27,1.22,1.22,0,0,1-.06-.41.94.94,0,0,1,.07-.37,1,1,0,0,1,.23-.33,1.28,1.28,0,0,1,.37-.23,1.31,1.31,0,0,1,.5-.09,1.55,1.55,0,0,1,.31,0,1.15,1.15,0,0,1,.28.07l.25.11a1.16,1.16,0,0,1,.21.16Z" transform="translate(-305.14 -533.69)"/><polygon class="cls-4" points="11.68 59.96 12.95 59.96 12.95 60.59 10.89 60.59 10.89 57.17 11.68 57.17 11.68 59.96"/><path class="cls-4" d="M319.45,593h.93l-.31-.94c0-.06-.05-.13-.07-.21s-.05-.17-.08-.26c0,.09-.05.18-.08.26l-.07.21Zm2.2,1.3H321a.31.31,0,0,1-.17,0,.38.38,0,0,1-.09-.13l-.2-.59h-1.3l-.21.59a.18.18,0,0,1-.09.12.23.23,0,0,1-.17,0h-.62l1.33-3.42h.81Z" transform="translate(-305.14 -533.69)"/><path class="cls-4" d="M321.18,590.86h.63a.29.29,0,0,1,.17,0,.23.23,0,0,1,.1.12l.66,1.83c0,.09.06.17.09.27a2.45,2.45,0,0,1,.08.29c0-.1,0-.2.08-.29s.06-.18.09-.27l.65-1.83a.35.35,0,0,1,.1-.12.28.28,0,0,1,.16,0h.65l-1.37,3.42h-.72Z" transform="translate(-305.14 -533.69)"/><polygon class="cls-4" points="21.99 57.17 21.99 57.78 20.58 57.78 20.58 58.58 21.66 58.58 21.66 59.17 20.58 59.17 20.58 59.98 21.99 59.98 21.99 60.59 19.79 60.59 19.79 57.17 21.99 57.17"/></svg>